<svg width="79" height="77" viewBox="0 0 79 77" fill="none" xmlns="http://www.w3.org/2000/svg">
<g filter="url(#filter0_b_4_2627)">
<rect width="79" height="77" rx="4" fill="white" fill-opacity="0.2"/>
<path d="M12.752 31.5146L22.1855 18.7266H23.9727V31.5146H25.7891V34.5469H23.9727V39H19.9443V34.5469H12.752V31.5146ZM14.1729 31.5146H19.9443V23.6777L14.1729 31.5146ZM36.2773 33.624H27.7373V30.5918H36.2773V33.624ZM46.7656 18.7266V34.9717C46.7656 36.1924 46.8193 36.9736 46.9268 37.3154C47.0342 37.6475 47.2588 37.9209 47.6006 38.1357C47.9424 38.3506 48.4893 38.458 49.2412 38.458H49.6953V39H39.2363V38.458H39.7637C40.6133 38.458 41.2188 38.3604 41.5801 38.165C41.9414 37.9697 42.1855 37.7012 42.3125 37.3594C42.4395 37.0176 42.5029 36.2217 42.5029 34.9717V24.6738C42.5029 23.7559 42.459 23.1846 42.3711 22.96C42.2832 22.7256 42.1172 22.5303 41.873 22.374C41.6387 22.208 41.3652 22.125 41.0527 22.125C40.5547 22.125 39.9492 22.2812 39.2363 22.5938L38.9727 22.0664L46.2822 18.7266H46.7656ZM66.0869 18.7266V19.1367C64.3193 19.5859 62.8984 20.167 61.8242 20.8799C60.7598 21.583 59.915 22.4424 59.29 23.458C58.6748 24.4639 58.1963 25.7139 57.8545 27.208C58.2842 26.915 58.6406 26.7246 58.9238 26.6367C59.5586 26.4414 60.1982 26.3438 60.8428 26.3438C62.3271 26.3438 63.5625 26.8857 64.5488 27.9697C65.5449 29.0439 66.043 30.5137 66.043 32.3789C66.043 33.6875 65.7744 34.8887 65.2373 35.9824C64.7002 37.0762 63.9385 37.9209 62.9521 38.5166C61.9658 39.1123 60.9111 39.4102 59.7881 39.4102C58.5674 39.4102 57.4395 39.0781 56.4043 38.4141C55.3691 37.7402 54.5586 36.7588 53.9727 35.4697C53.3965 34.1807 53.1084 32.7793 53.1084 31.2656C53.1084 29.0391 53.6406 26.9688 54.7051 25.0547C55.7793 23.1309 57.2979 21.6025 59.2607 20.4697C61.2334 19.3271 63.5088 18.7461 66.0869 18.7266ZM57.6641 28.3945C57.5859 29.7422 57.5469 30.7285 57.5469 31.3535C57.5469 32.7012 57.6738 34.0049 57.9277 35.2646C58.1914 36.5244 58.5479 37.4082 58.9971 37.916C59.3193 38.2773 59.7002 38.458 60.1396 38.458C60.5889 38.458 60.9893 38.1992 61.3408 37.6816C61.6924 37.1543 61.8682 36.0898 61.8682 34.4883C61.8682 31.793 61.541 29.9326 60.8867 28.9072C60.4668 28.2432 59.9004 27.9111 59.1875 27.9111C58.7969 27.9111 58.2891 28.0723 57.6641 28.3945Z" fill="white"/>
<path d="M25.5212 62.168C24.1352 62.168 23.2812 61.636 22.5532 60.768L23.2672 60.096C23.8412 60.726 24.5132 61.23 25.4512 61.23C26.8372 61.23 27.9572 60.166 28.1112 58.808H24.8072V57.898H28.0972C27.9572 56.61 26.8652 55.546 25.5072 55.546C24.5132 55.546 23.8412 56.008 23.2672 56.624L22.6372 55.924C23.3092 55.168 24.1912 54.608 25.5772 54.608C27.6912 54.608 29.2312 56.358 29.2312 58.416C29.2312 60.446 27.6212 62.168 25.5212 62.168ZM32.9452 62V55.714H30.3552V54.762H36.6272V55.714H34.0372V62H32.9452ZM40.3512 62.154C38.9932 62.154 37.6492 61.384 37.6492 59.872C37.6492 58.318 38.9092 57.506 40.7432 57.506C41.6672 57.506 42.3112 57.632 42.9552 57.814V57.59C42.9552 56.302 42.1712 55.63 40.8132 55.63C39.9592 55.63 39.2872 55.84 38.6152 56.148L38.2932 55.266C39.0912 54.902 39.8612 54.65 40.9252 54.65C41.9472 54.65 42.7452 54.93 43.2632 55.448C43.7672 55.952 44.0192 56.652 44.0192 57.576V62H42.9552V60.922C42.4512 61.566 41.6252 62.154 40.3512 62.154ZM40.5612 61.286C41.8912 61.286 42.9692 60.488 42.9692 59.34V58.668C42.4372 58.514 41.7372 58.36 40.8552 58.36C39.5112 58.36 38.7412 58.948 38.7412 59.844C38.7412 60.754 39.5812 61.286 40.5612 61.286ZM45.3786 62L48.3466 57.856L45.5326 54.762H46.8346L50.5166 58.962V54.762H51.5946V58.962L55.2766 54.762H56.5786L53.7646 57.856L56.7326 62H55.4726L53.0646 58.626L51.5946 60.236V62H50.5166V60.236L49.0466 58.626L46.6386 62H45.3786Z" fill="white"/>
</g>
<defs>
<filter id="filter0_b_4_2627" x="-14" y="-14" width="107" height="105" filterUnits="userSpaceOnUse" color-interpolation-filters="sRGB">
<feFlood flood-opacity="0" result="BackgroundImageFix"/>
<feGaussianBlur in="BackgroundImageFix" stdDeviation="7"/>
<feComposite in2="SourceAlpha" operator="in" result="effect1_backgroundBlur_4_2627"/>
<feBlend mode="normal" in="SourceGraphic" in2="effect1_backgroundBlur_4_2627" result="shape"/>
</filter>
</defs>
</svg>
